HIERARCHY
ROOT newVegas:Hips
{
	OFFSET 0.000000 96.479958 0.000000
	CHANNELS 6 Xposition Yposition Zposition Xrotation Yrotation Zrotation
	JOINT newVegas:Pelvis
	{
		OFFSET 0.000000 0.000000 0.000000
		CHANNELS 3 Xrotation Yrotation Zrotation
		JOINT newVegas:LeftUpLeg
		{
			OFFSET 18.735201 -5.666702 -4.541200
			CHANNELS 3 Xrotation Yrotation Zrotation
			JOINT newVegas:LeftLeg
			{
				OFFSET -0.021200 -31.938179 0.493100
				CHANNELS 3 Xrotation Yrotation Zrotation
				JOINT newVegas:LeftFoot
				{
					OFFSET 0.021200 -31.938179 -4.336299
					CHANNELS 3 Xrotation Yrotation Zrotation
					JOINT newVegas:LeftToeBase
					{
						OFFSET 0.943001 -26.722000 15.023500
						CHANNELS 3 Xrotation Yrotation Zrotation
						End Site
						{
							OFFSET 0.000000 30.670183 0.000000
						}
					}
				}
				JOINT newVegas:Left_PantLeg
				{
					OFFSET 0.663870 -9.044666 -1.108900
					CHANNELS 3 Xrotation Yrotation Zrotation
					End Site
					{
						OFFSET 1.415995 20.635357 0.000000
					}
				}
			}
		}
		JOINT newVegas:RightUpLeg
		{
			OFFSET -18.735201 -5.666702 -4.541200
			CHANNELS 3 Xrotation Yrotation Zrotation
			JOINT newVegas:RightLeg
			{
				OFFSET 0.018946 -31.938133 0.493100
				CHANNELS 3 Xrotation Yrotation Zrotation
				JOINT newVegas:RightFoot
				{
					OFFSET -0.018946 -31.938126 -4.336299
					CHANNELS 3 Xrotation Yrotation Zrotation
					JOINT newVegas:RightToeBase
					{
						OFFSET -0.943001 -26.722004 15.023500
						CHANNELS 3 Xrotation Yrotation Zrotation
						End Site
						{
							OFFSET 0.000000 30.670187 0.000000
						}
					}
				}
				JOINT newVegas:Right_PantLeg
				{
					OFFSET -0.661674 -9.044716 -1.108900
					CHANNELS 3 Xrotation Yrotation Zrotation
					End Site
					{
						OFFSET -1.415958 20.635269 0.000000
					}
				}
			}
		}
	}
	JOINT newVegas:Spine
	{
		OFFSET 0.000000 10.199997 -0.299500
		CHANNELS 3 Xrotation Yrotation Zrotation
		JOINT newVegas:Spine1
		{
			OFFSET 0.000000 11.900002 -1.516600
			CHANNELS 3 Xrotation Yrotation Zrotation
			JOINT newVegas:Spine2
			{
				OFFSET 0.000000 13.600006 -2.842500
				CHANNELS 3 Xrotation Yrotation Zrotation
				JOINT newVegas:Neck
				{
					OFFSET 0.000000 9.624100 -2.890100
					CHANNELS 3 Xrotation Yrotation Zrotation
					JOINT newVegas:Head
					{
						OFFSET 0.000000 14.068802 -1.351900
						CHANNELS 3 Xrotation Yrotation Zrotation
						JOINT newVegas:Hair_Back
						{
							OFFSET 0.000000 3.231903 -17.524799
							CHANNELS 3 Xrotation Yrotation Zrotation
							End Site
							{
								OFFSET 0.000000 19.849884 0.000000
							}
						}
						JOINT newVegas:Hair_Front
						{
							OFFSET 0.000000 31.260406 4.573800
							CHANNELS 3 Xrotation Yrotation Zrotation
							JOINT newVegas:Hair_Front1
							{
								OFFSET 0.000000 2.284103 11.993300
								CHANNELS 3 Xrotation Yrotation Zrotation
								JOINT newVegas:Hair_Front2
								{
									OFFSET 0.000000 2.284103 11.993300
									CHANNELS 3 Xrotation Yrotation Zrotation
									End Site
									{
										OFFSET 0.000000 12.208862 0.000000
									}
								}
							}
						}
						JOINT newVegas:Jowel
						{
							OFFSET 0.000000 -7.458206 6.864100
							CHANNELS 3 Xrotation Yrotation Zrotation
							End Site
							{
								OFFSET 0.000000 19.849884 0.000000
							}
						}
					}
				}
				JOINT newVegas:LeftShoulder
				{
					OFFSET 15.263000 10.923401 -0.547700
					CHANNELS 3 Xrotation Yrotation Zrotation
					JOINT newVegas:LeftArm
					{
						OFFSET 25.438599 -2.830597 -13.032500
						CHANNELS 3 Xrotation Yrotation Zrotation
						JOINT newVegas:LeftForeArm
						{
							OFFSET 29.960503 0.000000 0.000000
							CHANNELS 3 Xrotation Yrotation Zrotation
							JOINT newVegas:LeftHand
							{
								OFFSET 27.849251 0.000000 0.000000
								CHANNELS 3 Xrotation Yrotation Zrotation
								JOINT newVegas:LeftHandThumb1
								{
									OFFSET 4.487587 -3.305161 6.305391
									CHANNELS 3 Xrotation Yrotation Zrotation
									JOINT newVegas:LeftHandThumb2
									{
										OFFSET 5.480453 -3.164139 3.164143
										CHANNELS 3 Xrotation Yrotation Zrotation
										JOINT newVegas:LeftHandThumb3
										{
											OFFSET 5.159721 -2.978973 2.978967
											CHANNELS 3 Xrotation Yrotation Zrotation
											End Site
											{
												OFFSET 2.494507 5.926697 1.738678
											}
										}
									}
								}
								JOINT newVegas:LeftHandIndex1
								{
									OFFSET 18.578728 -0.527832 5.208049
									CHANNELS 3 Xrotation Yrotation Zrotation
									JOINT newVegas:LeftHandIndex2
									{
										OFFSET 3.192009 0.000000 0.000000
										CHANNELS 3 Xrotation Yrotation Zrotation
										JOINT newVegas:LeftHandIndex3
										{
											OFFSET 3.835129 0.000000 0.000000
											CHANNELS 3 Xrotation Yrotation Zrotation
											End Site
											{
												OFFSET -0.034599 3.816971 0.371180
											}
										}
									}
								}
								JOINT newVegas:LeftHandMiddle1
								{
									OFFSET 18.476105 0.000000 0.000000
									CHANNELS 3 Xrotation Yrotation Zrotation
									JOINT newVegas:LeftHandMiddle2
									{
										OFFSET 3.324875 0.000000 0.000000
										CHANNELS 3 Xrotation Yrotation Zrotation
										JOINT newVegas:LeftHandMiddle3
										{
											OFFSET 4.596550 0.000000 0.000000
											CHANNELS 3 Xrotation Yrotation Zrotation
											End Site
											{
												OFFSET 0.057701 4.578827 0.399218
											}
										}
									}
								}
								JOINT newVegas:LeftHandRing1
								{
									OFFSET 17.732719 0.121887 -4.201567
									CHANNELS 3 Xrotation Yrotation Zrotation
									JOINT newVegas:LeftHandRing2
									{
										OFFSET 2.733170 0.000000 0.000000
										CHANNELS 3 Xrotation Yrotation Zrotation
										JOINT newVegas:LeftHandRing3
										{
											OFFSET 3.178268 0.000000 0.000000
											CHANNELS 3 Xrotation Yrotation Zrotation
											End Site
											{
												OFFSET 0.119102 3.170624 0.185394
											}
										}
									}
								}
								JOINT newVegas:LeftHandPinky1
								{
									OFFSET 15.989624 -0.606689 -7.535461
									CHANNELS 3 Xrotation Yrotation Zrotation
									JOINT newVegas:LeftHandPinky2
									{
										OFFSET 2.538986 0.000000 0.000000
										CHANNELS 3 Xrotation Yrotation Zrotation
										JOINT newVegas:LeftHandPinky3
										{
											OFFSET 2.593102 0.000000 0.000000
											CHANNELS 3 Xrotation Yrotation Zrotation
											End Site
											{
												OFFSET -0.150902 2.584198 0.152708
											}
										}
									}
								}
							}
							JOINT newVegas:Left_Sleeve
							{
								OFFSET 0.267448 -0.649796 0.577675
								CHANNELS 3 Xrotation Yrotation Zrotation
								End Site
								{
									OFFSET 0.000000 15.991241 0.000000
								}
							}
							JOINT newVegas:Left_CapeC
							{
								OFFSET 15.715958 -8.608795 -6.935905
								CHANNELS 3 Xrotation Yrotation Zrotation
								JOINT newVegas:Left_CapeC1
								{
									OFFSET 0.000000 -8.688499 0.000000
									CHANNELS 3 Xrotation Yrotation Zrotation
									End Site
									{
										OFFSET 0.000000 8.688499 0.000000
									}
								}
							}
						}
						JOINT newVegas:Left_CapeB
						{
							OFFSET 26.118385 -8.608795 -7.079235
							CHANNELS 3 Xrotation Yrotation Zrotation
							JOINT newVegas:Left_CapeB1
							{
								OFFSET 0.000000 -8.688499 0.000000
								CHANNELS 3 Xrotation Yrotation Zrotation
								End Site
								{
									OFFSET 0.000000 8.688499 0.000000
								}
							}
						}
						JOINT newVegas:Left_CapeA
						{
							OFFSET 5.115639 -8.608795 -10.395809
							CHANNELS 3 Xrotation Yrotation Zrotation
							JOINT newVegas:Left_CapeA1
							{
								OFFSET 0.000000 -8.688499 0.000000
								CHANNELS 3 Xrotation Yrotation Zrotation
								End Site
								{
									OFFSET 0.000000 8.688499 0.000000
								}
							}
						}
					}
				}
				JOINT newVegas:RightShoulder
				{
					OFFSET -15.263000 10.923401 -0.547700
					CHANNELS 3 Xrotation Yrotation Zrotation
					JOINT newVegas:RightArm
					{
						OFFSET -25.438599 -2.830597 -13.032500
						CHANNELS 3 Xrotation Yrotation Zrotation
						JOINT newVegas:RightForeArm
						{
							OFFSET -29.960503 0.000000 0.000000
							CHANNELS 3 Xrotation Yrotation Zrotation
							JOINT newVegas:RightHand
							{
								OFFSET -27.849251 0.000000 0.000000
								CHANNELS 3 Xrotation Yrotation Zrotation
								JOINT newVegas:RightHandThumb1
								{
									OFFSET -4.487587 -3.305161 6.305391
									CHANNELS 3 Xrotation Yrotation Zrotation
									JOINT newVegas:RightHandThumb2
									{
										OFFSET -5.480453 -3.164139 3.164143
										CHANNELS 3 Xrotation Yrotation Zrotation
										JOINT newVegas:RightHandThumb3
										{
											OFFSET -5.159721 -2.978973 2.978967
											CHANNELS 3 Xrotation Yrotation Zrotation
											End Site
											{
												OFFSET -2.494507 5.926697 1.738678
											}
										}
									}
								}
								JOINT newVegas:RightHandIndex1
								{
									OFFSET -18.578728 -0.527832 5.208049
									CHANNELS 3 Xrotation Yrotation Zrotation
									JOINT newVegas:RightHandIndex2
									{
										OFFSET -3.192009 0.000000 0.000000
										CHANNELS 3 Xrotation Yrotation Zrotation
										JOINT newVegas:RightHandIndex3
										{
											OFFSET -3.835129 0.000000 0.000000
											CHANNELS 3 Xrotation Yrotation Zrotation
											End Site
											{
												OFFSET 0.034599 3.816971 0.371180
											}
										}
									}
								}
								JOINT newVegas:RightHandMiddle1
								{
									OFFSET -18.476105 0.000000 0.000000
									CHANNELS 3 Xrotation Yrotation Zrotation
									JOINT newVegas:RightHandMiddle2
									{
										OFFSET -3.324875 0.000000 0.000000
										CHANNELS 3 Xrotation Yrotation Zrotation
										JOINT newVegas:RightHandMiddle3
										{
											OFFSET -4.596550 0.000000 0.000000
											CHANNELS 3 Xrotation Yrotation Zrotation
											End Site
											{
												OFFSET -0.057701 4.578827 0.399218
											}
										}
									}
								}
								JOINT newVegas:RightHandRing1
								{
									OFFSET -17.732719 0.121887 -4.201567
									CHANNELS 3 Xrotation Yrotation Zrotation
									JOINT newVegas:RightHandRing2
									{
										OFFSET -2.733170 0.000000 0.000000
										CHANNELS 3 Xrotation Yrotation Zrotation
										JOINT newVegas:RightHandRing3
										{
											OFFSET -3.178268 0.000000 0.000000
											CHANNELS 3 Xrotation Yrotation Zrotation
											End Site
											{
												OFFSET -0.119102 3.170624 0.185394
											}
										}
									}
								}
								JOINT newVegas:RightHandPinky1
								{
									OFFSET -15.989624 -0.606689 -7.535461
									CHANNELS 3 Xrotation Yrotation Zrotation
									JOINT newVegas:RightHandPinky2
									{
										OFFSET -2.538986 0.000000 0.000000
										CHANNELS 3 Xrotation Yrotation Zrotation
										JOINT newVegas:RightHandPinky3
										{
											OFFSET -2.593102 0.000000 0.000000
											CHANNELS 3 Xrotation Yrotation Zrotation
											End Site
											{
												OFFSET 0.150902 2.584198 0.152708
											}
										}
									}
								}
							}
							JOINT newVegas:Right_CapeC
							{
								OFFSET -15.715958 -8.608795 -6.935905
								CHANNELS 3 Xrotation Yrotation Zrotation
								JOINT newVegas:Right_CapeC1
								{
									OFFSET 0.000000 -8.688499 0.000000
									CHANNELS 3 Xrotation Yrotation Zrotation
									End Site
									{
										OFFSET 0.000000 8.688499 0.000000
									}
								}
							}
							JOINT newVegas:Right_Sleeve
							{
								OFFSET -0.267448 -0.649994 0.577675
								CHANNELS 3 Xrotation Yrotation Zrotation
								End Site
								{
									OFFSET 0.000000 15.991302 0.000000
								}
							}
						}
						JOINT newVegas:Right_CapeA
						{
							OFFSET -5.115540 -8.608795 -10.395824
							CHANNELS 3 Xrotation Yrotation Zrotation
							JOINT newVegas:Right_CapeA1
							{
								OFFSET 0.000000 -8.688499 0.000000
								CHANNELS 3 Xrotation Yrotation Zrotation
								End Site
								{
									OFFSET 0.000000 8.688499 0.000000
								}
							}
						}
						JOINT newVegas:Right_CapeB
						{
							OFFSET -26.118187 -8.608795 -7.079266
							CHANNELS 3 Xrotation Yrotation Zrotation
							JOINT newVegas:Right_CapeB1
							{
								OFFSET 0.000000 -8.688499 0.000000
								CHANNELS 3 Xrotation Yrotation Zrotation
								End Site
								{
									OFFSET 0.000000 8.688499 0.000000
								}
							}
						}
					}
				}
				JOINT newVegas:Left_Collar
				{
					OFFSET 18.625099 8.655502 8.828100
					CHANNELS 3 Xrotation Yrotation Zrotation
					JOINT newVegas:Left_Collar1
					{
						OFFSET 14.783401 10.540405 -1.259500
						CHANNELS 3 Xrotation Yrotation Zrotation
						End Site
						{
							OFFSET 0.000000 18.199875 0.000000
						}
					}
				}
				JOINT newVegas:Collar_Back
				{
					OFFSET 0.000000 15.630707 -20.132601
					CHANNELS 3 Xrotation Yrotation Zrotation
					End Site
					{
						OFFSET 0.000000 22.523010 0.000000
					}
				}
				JOINT newVegas:Left_Peck
				{
					OFFSET 17.239599 -5.132599 25.482599
					CHANNELS 3 Xrotation Yrotation Zrotation
					End Site
					{
						OFFSET 0.000000 22.523010 0.000000
					}
				}
				JOINT newVegas:Right_Peck
				{
					OFFSET -17.239599 -5.132202 25.482599
					CHANNELS 3 Xrotation Yrotation Zrotation
					End Site
					{
						OFFSET 0.000000 22.523010 0.000000
					}
				}
				JOINT newVegas:Right_Collar
				{
					OFFSET -18.625099 8.655792 8.828100
					CHANNELS 3 Xrotation Yrotation Zrotation
					JOINT newVegas:Right_Collar1
					{
						OFFSET -14.783401 10.539993 -1.259500
						CHANNELS 3 Xrotation Yrotation Zrotation
						End Site
						{
							OFFSET 0.000000 18.199631 0.000000
						}
					}
				}
			}
		}
		JOINT newVegas:Belly
		{
			OFFSET 0.000000 -6.540398 9.014299
			CHANNELS 3 Xrotation Yrotation Zrotation
			End Site
			{
				OFFSET 0.000000 11.566666 0.000000
			}
		}
	}
	JOINT newVegas:ElvisFacialAnim_Joint
	{
		OFFSET 1.000000 -95.330101 -8.825800
		CHANNELS 3 Xrotation Yrotation Zrotation
		End Site
		{
			OFFSET 0.000000 35.315800 0.000000
		}
	}
}
MOTION
Frames: 4
Frame Time: 0.033333
5.127989 92.727829 9.154413 1.396651 -25.290930 -1.794473 -0.000000 -0.000000 -0.000000 -19.827310 13.221000 8.066209 35.468370 9.555478 -2.058821 -17.509074 0.955395 -2.041914 0.000000 0.000000 -0.000000 0.000001 -0.000000 -0.000000 -24.959818 7.331081 -5.754339 39.396377 7.077401 1.039713 1.154966 -7.723586 8.541979 0.000000 -0.000001 0.000000 -0.000000 -0.000000 -0.000000 7.684968 -1.001094 -1.250992 1.775662 -1.048965 4.147834 1.773148 -0.489392 4.135865 -1.083683 2.208275 -0.436359 -1.083682 2.208264 -0.436355 0.000001 0.000001 -0.000001 -1.083683 2.208269 -0.436361 -1.083686 2.208264 -0.436357 0.000000 -0.000000 -0.000000 0.000001 0.000001 -0.000001 0.823733 9.507491 5.069661 56.917186 -34.027828 -37.139649 219.022092 -143.266209 194.134972 -40.406603 22.766979 -18.007744 17.551636 -5.699232 -12.932347 10.847889 26.158901 8.659576 0.000002 0.000000 -0.000003 14.001624 1.204040 -55.116526 0.372885 1.159728 -65.538144 -0.000001 0.000004 0.000001 7.533738 1.183760 -63.962126 1.834715 1.489036 -64.754114 0.000000 -0.000004 -0.000001 8.609703 2.188387 -75.367702 -0.187819 1.021670 -57.991243 -0.000000 -0.000001 0.000001 9.887603 13.624979 -84.920329 0.910443 0.077996 -64.809841 0.000000 -0.000003 -0.000000 0.000003 0.000001 -0.000000 0.000003 0.000001 -0.000000 0.000002 0.000001 -0.000000 -0.000001 -0.000001 0.000000 -0.000001 -0.000002 0.000000 -0.000001 -0.000001 0.000000 -0.000001 -0.000002 0.000000 2.082752 1.187323 1.295318 -5.956667 10.478527 57.871735 2.758121 26.408515 -2.284226 1.883718 6.731752 4.080251 15.833005 -0.546165 -16.797423 -2.095837 -31.041782 7.369086 0.000002 -0.000001 -0.000004 2.378802 -12.981610 2.529804 -2.140421 -2.433102 13.301401 0.000000 -0.000000 -0.000001 -0.991911 -12.079591 8.651168 -0.582163 -5.057200 17.310961 0.000001 0.000000 0.000000 -6.206746 -16.377692 4.329400 3.273212 -4.671654 23.283586 -0.000001 0.000001 -0.000000 -9.076802 -19.363363 13.344169 10.119423 -4.367677 24.892312 -0.000001 0.000002 -0.000001 -0.000000 -0.000001 0.000002 -0.000001 -0.000000 0.000000 -0.000000 -0.000001 0.000002 -0.000000 0.000000 -0.000002 -0.000000 0.000001 -0.000002 -0.000000 0.000000 -0.000002 -0.000000 0.000001 -0.000002 0.000000 0.000000 -0.000000 0.000000 0.000000 -0.000000 0.000000 0.000000 -0.000000 0.000000 0.000000 -0.000000 0.000000 0.000000 -0.000000 0.000000 0.000000 -0.000000 0.000000 0.000000 -0.000000 -0.000000 0.000002 -0.000000 -0.000000 -0.000000 -0.000000 
4.996913 92.639511 9.147909 1.368167 -26.021600 -1.580599 0.000000 -0.000001 0.000000 -19.524579 13.560389 8.007740 35.521905 9.975900 -2.072067 -17.745487 1.003058 -2.325913 -0.000000 -0.000000 -0.000000 -0.000002 0.000000 -0.000000 -26.146161 6.972334 -6.593068 41.152518 5.979532 0.688142 3.224121 -7.541129 8.889449 0.000000 -0.000001 0.000000 0.000001 0.000000 -0.000001 7.761863 -0.905841 -1.144869 1.782263 -0.933103 3.992369 1.778049 -0.394172 3.976724 -1.065167 2.264705 -0.484774 -1.065169 2.264719 -0.484779 0.000001 0.000001 -0.000000 -1.065165 2.264727 -0.484777 -1.065096 2.264725 -0.484778 0.000000 0.000000 -0.000000 0.000001 0.000001 0.000000 0.088536 9.850497 5.357809 43.138638 -29.199458 -41.477864 222.282701 -151.045522 193.797288 -41.003255 21.134292 -15.576451 17.551624 -5.699214 -12.932319 10.847910 26.158931 8.659564 0.000001 -0.000003 -0.000001 14.001610 1.204032 -55.116529 0.372878 1.159748 -65.538144 -0.000000 0.000002 -0.000001 7.533746 1.183783 -63.962153 1.834742 1.489062 -64.754107 0.000001 -0.000002 0.000001 8.609698 2.188380 -75.367681 -0.187829 1.021684 -57.991250 -0.000002 -0.000001 0.000003 9.897054 13.625638 -84.920432 0.910439 0.078004 -64.809841 -0.000001 -0.000003 -0.000001 0.000000 -0.000000 -0.000000 0.000000 -0.000000 -0.000000 -0.000001 0.000000 -0.000001 -0.000000 0.000003 0.000002 0.000000 0.000002 0.000002 -0.000000 0.000003 0.000002 0.000000 0.000002 0.000001 2.102625 1.600052 1.186038 -5.899913 10.423489 57.836655 3.135105 26.207740 -2.452270 0.193748 7.588094 3.386660 15.839272 -0.251051 -16.744549 -2.095996 -31.041024 7.369339 0.000001 -0.000001 -0.000004 2.266204 -12.507256 1.822198 -2.138440 -2.431959 12.556980 -0.000000 0.000002 -0.000001 -1.116006 -11.698516 8.071629 -0.602583 -5.056367 17.078301 0.000001 -0.000001 0.000000 -6.051405 -15.891050 3.911530 3.252814 -4.685781 23.033099 -0.000001 0.000001 -0.000000 -8.955525 -18.974136 13.097076 10.099822 -4.413107 24.636096 0.000000 0.000003 0.000000 0.000001 0.000001 0.000000 0.000001 0.000000 0.000000 0.000001 0.000001 0.000000 -0.000001 0.000003 0.000001 -0.000000 0.000003 0.000002 -0.000001 0.000003 0.000001 -0.000000 0.000003 0.000002 -0.000000 -0.000001 -0.000000 -0.000000 -0.000001 -0.000000 -0.000000 -0.000001 -0.000000 -0.000000 -0.000001 -0.000000 -0.000000 -0.000001 -0.000000 -0.000000 -0.000001 -0.000000 -0.000000 -0.000001 -0.000000 -0.000000 -0.000001 -0.000000 0.000000 -0.000001 0.000000 
4.816339 92.543655 9.122791 1.342601 -26.644978 -1.362793 -0.000000 -0.000002 0.000000 -19.272776 13.864926 8.037434 35.655094 11.465835 -2.009015 -17.949240 -0.045896 -3.111175 -0.000000 0.000000 0.000000 0.000002 0.000000 0.000000 -27.071562 6.592269 -7.493054 42.549172 5.298485 0.325756 5.153982 -7.477572 9.101195 -0.000001 -0.000000 0.000000 0.000002 0.000001 -0.000001 7.807137 -0.797220 -1.036860 1.783306 -0.796229 3.819987 1.778286 -0.280144 3.799660 -1.050663 2.302987 -0.522395 -1.050667 2.302975 -0.522390 0.000000 -0.000001 0.000000 -1.050587 2.302982 -0.522397 -1.050657 2.302989 -0.522395 -0.000000 -0.000001 -0.000000 0.000000 -0.000001 0.000000 -0.414858 9.899482 5.346320 31.226409 -25.007821 -44.048546 220.607447 -153.883930 194.379370 -41.124893 20.397682 -13.964291 17.551662 -5.699243 -12.932325 10.847880 26.158924 8.659596 0.000001 -0.000002 0.000002 14.001654 1.204034 -55.116519 0.372886 1.159721 -65.538158 0.000000 -0.000001 0.000002 7.533754 1.183766 -63.962133 1.834728 1.489059 -64.754121 -0.000001 -0.000003 0.000000 8.609696 2.188366 -75.367675 -0.187825 1.021690 -57.991250 -0.000001 0.000001 0.000004 9.906863 13.626277 -84.920534 0.910444 0.078022 -64.809862 -0.000002 -0.000005 -0.000000 0.000000 -0.000001 -0.000000 0.000000 -0.000001 -0.000000 0.000000 -0.000001 -0.000001 -0.000001 0.000002 0.000002 -0.000001 0.000001 0.000003 -0.000001 0.000002 0.000002 -0.000003 0.000001 0.000001 2.133836 1.992977 1.115517 -5.755672 10.288809 57.828473 3.608855 25.921420 -2.633254 -1.486629 8.479810 2.762583 15.845660 0.026594 -16.695188 -2.096178 -31.040341 7.369539 0.000001 0.000001 -0.000004 2.159361 -12.047552 1.130590 -2.136937 -2.430744 11.841003 0.000000 0.000000 0.000001 -1.225371 -11.382997 7.557726 -0.620282 -5.055659 16.876243 -0.000000 -0.000000 -0.000000 -5.911490 -15.478843 3.548006 3.235049 -4.697934 22.816274 0.000000 -0.000001 -0.000000 -8.853644 -18.620293 12.883229 10.082619 -4.452449 24.413750 -0.000000 -0.000002 0.000001 0.000001 0.000001 0.000000 0.000001 0.000000 0.000000 0.000001 0.000000 0.000000 -0.000000 0.000000 -0.000002 -0.000000 0.000000 -0.000002 -0.000000 0.000000 -0.000002 -0.000000 -0.000000 -0.000002 0.000000 0.000001 -0.000000 0.000000 0.000001 -0.000000 0.000000 0.000001 -0.000000 0.000000 0.000001 -0.000000 0.000000 0.000001 -0.000000 0.000000 0.000001 -0.000000 0.000000 0.000001 -0.000000 -0.000000 -0.000001 -0.000000 -0.000000 -0.000002 0.000000 
4.537807 92.455589 9.043093 1.324481 -27.029663 -1.149168 -0.000000 -0.000000 -0.000000 -19.139404 14.137438 8.153333 35.713427 11.302915 -2.050983 -18.031819 0.199350 -3.317609 -0.000000 -0.000000 -0.000000 0.000001 -0.000000 -0.000000 -27.441006 6.131326 -8.523846 43.477678 5.155941 -0.036605 6.392024 -7.620978 9.118917 -0.000000 0.000001 -0.000000 0.000001 -0.000003 0.000000 7.782742 -0.658166 -0.913942 1.774841 -0.611721 3.610108 1.769963 -0.123122 3.582806 -1.047841 2.300175 -0.534928 -1.047846 2.300182 -0.534934 0.000001 -0.000002 -0.000000 -1.047842 2.300191 -0.534931 -1.047847 2.300198 -0.534930 0.000000 0.000001 -0.000000 0.000001 -0.000002 -0.000000 -0.723055 9.699237 5.086866 20.727360 -20.846436 -45.243900 215.285732 -152.738903 195.675180 -40.920565 20.288483 -12.914356 17.551619 -5.699249 -12.932329 10.847896 26.158936 8.659579 -0.000002 0.000000 -0.000004 14.001623 1.204030 -55.116519 0.372875 1.159738 -65.538144 -0.000001 0.000000 -0.000002 7.533722 1.183760 -63.962140 1.834732 1.489090 -64.754114 0.000000 0.000001 -0.000003 8.609688 2.188376 -75.367681 -0.187844 1.021709 -57.991257 0.000001 -0.000001 0.000000 9.916955 13.626908 -84.920650 0.910437 0.077995 -64.809862 -0.000002 -0.000003 0.000002 -0.000001 0.000003 0.000001 -0.000001 0.000003 0.000001 -0.000002 0.000003 0.000002 -0.000004 -0.000001 -0.000000 -0.000003 -0.000002 -0.000001 -0.000004 -0.000001 -0.000000 -0.000003 -0.000002 0.000000 2.189670 2.334803 1.140274 -5.420128 9.991212 57.873135 4.306684 25.445129 -2.842277 -3.160540 9.383674 2.232245 15.851923 0.284461 -16.649670 -2.096326 -31.039655 7.369778 0.000001 -0.000001 0.000003 2.059245 -11.600526 0.464092 -2.136039 -2.429540 11.163556 0.000000 0.000001 -0.000001 -1.323258 -11.120495 7.109983 -0.634998 -5.055113 16.708029 0.000001 -0.000001 -0.000000 -5.787082 -15.126702 3.241732 3.220312 -4.707959 22.636440 -0.000001 0.000001 0.000000 -8.769359 -18.291499 12.708082 10.068193 -4.485180 24.228611 0.000001 0.000003 0.000001 0.000001 0.000001 -0.000002 0.000001 0.000001 -0.000001 0.000001 0.000000 -0.000001 -0.000001 0.000000 0.000000 -0.000000 0.000001 0.000000 -0.000001 0.000000 0.000000 -0.000000 0.000001 0.000000 -0.000000 -0.000003 0.000000 -0.000000 -0.000003 0.000000 -0.000000 -0.000003 0.000000 -0.000000 -0.000003 0.000000 -0.000000 -0.000003 0.000000 -0.000000 -0.000003 0.000000 -0.000000 -0.000003 0.000000 0.000001 -0.000002 0.000000 -0.000000 -0.000000 -0.000000 
